<?xml version="1.0" encoding="UTF-8" standalone="no"?>
<svg
   version="1.1"
   width="861"
   height="855"
   id="svg27"
   sodipodi:docname="logo.svg"
   inkscape:version="1.4 (86a8ad7, 2024-10-11)"
   xmlns:inkscape="http://www.inkscape.org/namespaces/inkscape"
   xmlns:sodipodi="http://sodipodi.sourceforge.net/DTD/sodipodi-0.dtd"
   xmlns="http://www.w3.org/2000/svg"
   xmlns:svg="http://www.w3.org/2000/svg"
   xmlns:rdf="http://www.w3.org/1999/02/22-rdf-syntax-ns#"
   xmlns:cc="http://creativecommons.org/ns#"
   xmlns:dc="http://purl.org/dc/elements/1.1/">
  <metadata
     id="metadata31">
    <rdf:RDF>
      <cc:Work
         rdf:about="">
        <dc:format>image/svg+xml</dc:format>
        <dc:type
           rdf:resource="http://purl.org/dc/dcmitype/StillImage" />
      </cc:Work>
    </rdf:RDF>
  </metadata>
  <defs
     id="defs27">
    <inkscape:path-effect
       effect="fillet_chamfer"
       id="path-effect1"
       is_visible="true"
       lpeversion="1"
       nodesatellites_param="F,0,0,1,0,0,0,1 @ F,0,0,1,0,0,0,1 @ F,0,0,1,0,0,0,1 @ F,0,0,1,0,0,0,1 @ F,0,0,1,0,0,0,1 @ F,0,0,1,0,0,0,1 @ F,0,0,1,0,0,0,1 @ F,0,0,1,0,0,0,1"
       radius="0"
       unit="px"
       method="auto"
       mode="F"
       chamfer_steps="1"
       flexible="false"
       use_knot_distance="true"
       apply_no_radius="true"
       apply_with_radius="true"
       only_selected="false"
       hide_knots="false" />
  </defs>
  <sodipodi:namedview
     id="namedview27"
     pagecolor="#ffffff"
     bordercolor="#000000"
     borderopacity="0.25"
     inkscape:showpageshadow="2"
     inkscape:pageopacity="0.0"
     inkscape:pagecheckerboard="0"
     inkscape:deskcolor="#d1d1d1"
     inkscape:zoom="2.5571628"
     inkscape:cx="380.69536"
     inkscape:cy="656.39154"
     inkscape:window-width="1920"
     inkscape:window-height="991"
     inkscape:window-x="-9"
     inkscape:window-y="-9"
     inkscape:window-maximized="1"
     inkscape:current-layer="svg27"
     showgrid="false" />
  <path
     d="M 39.919556,0.06866455 C 40.696784,60.950384 40.533165,416.96466 -322.08044,329.0687 -30.300975,326.20148 -39.877196,136.16569 -47.080445,56.068705 l -2.210938,0.03516 C -205.2505,49.10815 -271.18002,88.378935 -335.08044,162.06875 -294.87576,-14.923351 8.952394,0.25686158 39.919555,0.06875555 Z"
     fill="#2a7465"
     transform="translate(659.08044,225.93134)"
     id="path4"
     sodipodi:nodetypes="ccccccc" />
  <path
     d="m 0,0 c 10.174008,30.867355 22.140315,64.295286 23.273437,96.320312 l 0.03714,2.344544 c 0.03184,2.486744 0.05076,4.973234 0.06442,7.460144 l 0.01685,2.55841 C 24.278784,140.3214 10.472162,171.73898 -18,203 27.684459,116.15064 -9.4865193,49.422771 -13.868855,50.247898 -95.388797,59.868656 -127.55785,141.45967 -103,220 c -15.10953,-16.38407 -28.00282,-52.94875 -29.29517,-74.82373 -0.0114,-1.43662 -0.0318,-2.87321 -0.0615,-4.30957 1.37515,-33.71879 13.80801,-53.2024 33.26292,-78.636231 C -72.095858,34.256015 -33.413612,11.903429 0,0 Z"
     transform="translate(280,171)"
     id="path5"
     sodipodi:nodetypes="cccccccccccc"
     inkscape:connector-curvature="0"
     style="fill:#2a7465" />
  <path
     d="M 0,0 1,2 C -79.168137,111.26638 -109.37731,144.68968 -319.12012,197.39106 -319.96038,195.6235 -330.52331,169.97529 -331,167 -109.6618,143.17101 -71.086389,73.581649 0,0 Z"
     fill="#2a7465"
     transform="translate(556,330)"
     id="path6"
     sodipodi:nodetypes="ccccc" />
  <path
     d="M0 0 C0.639375 0.4125 1.27875 0.825 1.9375 1.25 C3 3 3 3 3 6.375 C1.84441111 10.56400972 0.27542151 12.22848949 -3 15 C-5.74876408 13.83706135 -7.86660742 12.35270547 -10.125 10.4375 C-14.24992505 6.94028094 -16.4966048 6.72283702 -21.7421875 6.7734375 C-25.82623453 7.18325537 -28.18799202 9.18799202 -31 12 C-31.87918537 16.18585603 -31.9269343 20.2571024 -29.890625 24.0859375 C-25.85285168 28.98323683 -20.71142728 32.58857617 -15.64672852 36.34399414 C-10.51660174 40.20677487 -7.06016779 43.81949664 -5 50 C-4.20814989 58.80084839 -4.2384621 65.99418631 -10 73 C-16.84901678 80.68767189 -25.08295256 85.70599654 -35.48828125 86.40625 C-37.07505906 86.45566916 -38.66250633 86.48696505 -40.25 86.5 C-40.99435303 86.50644531 -41.73870605 86.51289062 -42.50561523 86.51953125 C-50.01776852 86.34593633 -56.41537375 84.24616405 -62 79 C-62.33 78.34 -62.66 77.68 -63 77 C-63.5775 77.763125 -64.155 78.52625 -64.75 79.3125 C-71.26101005 85.73188534 -82.64625031 85.38382756 -91.16796875 85.41015625 C-92.43253906 85.39855469 -93.69710937 85.38695312 -95 85.375 C-96.29550781 85.38660156 -97.59101562 85.39820313 -98.92578125 85.41015625 C-100.16714844 85.40628906 -101.40851562 85.40242187 -102.6875 85.3984375 C-103.80511719 85.39505371 -104.92273438 85.39166992 -106.07421875 85.38818359 C-109.32702208 84.95661172 -110.69338317 84.2991892 -113 82 C-116.39121476 71.82635572 -112.87256873 61.02104604 -110.1875 51.0625 C-109.82609396 49.68590844 -109.46606192 48.3089554 -109.10742188 46.93164062 C-108.57792407 44.89929524 -108.04806746 42.86706974 -107.51457214 40.83576965 C-104.07105468 28.16311421 -104.07105468 28.16311421 -102.3125 15.1875 C-102.24675781 14.19105469 -102.18101562 13.19460938 -102.11328125 12.16796875 C-102.07589844 11.45253906 -102.03851562 10.73710938 -102 10 C-103.32 10 -104.64 10 -106 10 C-106.37325636 6.73400687 -106.09290174 5.17031986 -104.5 2.25 C-99.41947633 -2.3224713 -90.80571993 -1.13720572 -84.25 -1.09765625 C-83.35128174 -1.0962413 -82.45256348 -1.09482635 -81.52661133 -1.09336853 C-78.68437225 -1.08781583 -75.84221487 -1.07527237 -73 -1.0625 C-71.06119906 -1.05747888 -69.12239688 -1.05291705 -67.18359375 -1.04882812 C-62.45569817 -1.03786194 -57.72786289 -1.02063044 -53 -1 C-51.95172183 3.65200325 -52.17176108 5.54117937 -54.69140625 9.54296875 C-56 11 -56 11 -59 12.0625 C-62 12 -62 12 -63.88964844 11.02197266 C-66.31920127 9.8454215 -68.07788974 9.68931193 -70.765625 9.5859375 C-72.09980469 9.52792969 -72.09980469 9.52792969 -73.4609375 9.46875 C-74.38132812 9.4378125 -75.30171875 9.406875 -76.25 9.375 C-77.65378906 9.31699219 -77.65378906 9.31699219 -79.0859375 9.2578125 C-81.39043054 9.16375156 -83.69492013 9.07810601 -86 9 C-85.95875 9.95003906 -85.9175 10.90007813 -85.875 11.87890625 C-85.875 16.70554428 -86.94514274 21.24883855 -88 25.9375 C-88.66 28.928125 -89.32 31.91875 -90 35 C-77.625 34.505 -77.625 34.505 -65 34 C-66.17021277 41.0212766 -66.17021277 41.0212766 -70 44 C-74.67809696 46.5032701 -79.1529538 46.23087861 -84.3125 46.125 C-85.14845703 46.11597656 -85.98441406 46.10695313 -86.84570312 46.09765625 C-88.89725969 46.07420989 -90.94866777 46.03834266 -93 46 C-95.82913371 57.40457582 -95.82913371 57.40457582 -96 69 C-93.77306528 72.03276929 -92.56772937 72.90514595 -88.8203125 73.53125 C-80.55594907 73.46136109 -73.73508454 72.47454834 -65.828125 69.875 C-63 69 -63 69 -60 69 C-59.505 67.515 -59.505 67.515 -59 66 C-54.66666667 63 -54.66666667 63 -52 63 C-51.608125 64.2375 -51.21625 65.475 -50.8125 66.75 C-49.06479229 71.45216599 -46.48151424 73.75924288 -42 76 C-35.77203604 76.52917341 -30.29293806 76.70505664 -25 73 C-21.46614328 69.10763608 -21.30020235 65.9191318 -21.4765625 60.8046875 C-23.03363543 52.46156539 -31.76484325 47.71582894 -38.23046875 43.17578125 C-43.28149643 39.20762551 -46.48439564 34.90300512 -47.3359375 28.45703125 C-47.4530534 20.52828471 -46.32796 13.92441718 -41.08203125 7.73828125 C-31.37398146 -1.55739121 -12.18279946 -8.43424578 0 0 Z "
     fill="#2a7465"
     transform="translate(644,656)"
     id="path7" />
  <path
     d="M -65.904334,88.524088 C -69.400653,88.906054 -72.192045,89.359241 -76,89 c -2.089852,-1.542387 -2.88474,-2.474527 -3.44458,-5.026855 -0.04882,-9.665638 2.461216,-18.776351 4.75708,-28.098145 0.81551,-3.355131 1.623693,-6.711948 2.425781,-10.070313 l 0.592896,-2.48146 c 1.305591,-5.552099 2.445881,-11.116923 3.438354,-16.733383 l 0.369461,-2.089752 c 1.786524,-8.676795 1.786524,-8.676795 -0.662429,-16.7305608 L -70,6 c 10.644555,-5.99693252 10.644555,-5.99693252 17,-5 1.690564,0.9590466 3.361707,1.954163 5,3 -0.230532,6.835262 -0.910138,13.238967 -2.78125,19.832031 -2.196546,7.941177 -4.120404,15.930565 -5.938477,23.966309 -0.354647,1.556074 -0.910897,3.697364 -1.27756,5.25065 -1.143256,4.846144 -6.269607,27.901265 -6.133951,31.054135 -0.01434,2.45907 1.602281,3.542141 1.501053,3.679114 -0.142476,0.192786 -2.209433,0.546589 -3.274149,0.741849 z"
     fill="#2a7465"
     transform="translate(417,653)"
     id="path8"
     sodipodi:nodetypes="ccccccccccccccccsc" />
  <path
     d="M0 0 C2.90875008 2.23696732 4.76736046 4.36431112 6.078125 7.76171875 C7.20677257 18.18202307 5.89797707 27.10777813 -0.546875 35.51171875 C-7.67987099 43.11068935 -18.04314697 47.68709876 -28.421875 48.13671875 C-30.154375 47.95109375 -30.154375 47.95109375 -31.921875 47.76171875 C-34.21201153 44.32651395 -34.10030473 42.77638775 -33.921875 38.76171875 C-32.83519531 38.61476563 -32.83519531 38.61476563 -31.7265625 38.46484375 C-24.48083799 37.34417169 -19.77390738 35.85142049 -14.671875 30.32421875 C-10.92754296 24.84144683 -10.38303087 20.27370742 -10.921875 13.76171875 C-11.43712921 10.37371059 -11.43712921 10.37371059 -12.921875 7.76171875 C-15.30306746 6.35913999 -15.30306746 6.35913999 -17.921875 5.76171875 C-18.911875 5.43171875 -19.901875 5.10171875 -20.921875 4.76171875 C-22.48305928 4.6943101 -24.0469002 4.67657419 -25.609375 4.69921875 C-27.765625 4.73046875 -27.765625 4.73046875 -29.921875 4.76171875 C-30.05903931 6.13638306 -30.05903931 6.13638306 -30.19897461 7.53881836 C-31.47488393 19.01630939 -33.85052807 30.09026653 -36.484375 41.32421875 C-37.10518284 43.99729591 -37.72365336 46.67088204 -38.33909607 49.34519958 C-38.71844931 50.99108296 -39.10108981 52.63621363 -39.48768616 54.28041077 C-41.07068209 61.10496065 -42.05684493 67.66963528 -41.984375 74.69921875 C-41.97535156 75.84261719 -41.96632812 76.98601562 -41.95703125 78.1640625 C-41.94542969 79.02128906 -41.93382812 79.87851562 -41.921875 80.76171875 C-47.08523025 84.02278523 -51.95195208 84.58848865 -57.921875 83.76171875 C-60.46812965 81.2154641 -60.25524519 80.2399336 -60.3125 76.6953125 C-60.18240363 69.16654578 -58.3082666 62.29894707 -56.30270386 55.09429932 C-55.23194821 51.24111228 -54.21250589 47.37440228 -53.19140625 43.5078125 C-52.99068008 42.75105225 -52.78995392 41.99429199 -52.58314514 41.21459961 C-50.94444083 34.98149849 -49.54209279 28.72328555 -48.359375 22.38671875 C-48.2037207 21.56308838 -48.04806641 20.73945801 -47.88769531 19.89086914 C-46.82493051 14.35050822 -46.82493051 14.35050822 -46.921875 8.76171875 C-47.911875 8.10171875 -48.901875 7.44171875 -49.921875 6.76171875 C-50.421875 4.38671875 -50.421875 4.38671875 -49.921875 1.76171875 C-38.3775851 -9.12053302 -12.83849653 -8.27195813 0 0 Z "
     fill="#2a7465"
     transform="translate(272.921875,658.23828125)"
     id="path10" />
  <path
     d="M0 0 C0.89871826 0.00141495 1.79743652 0.0028299 2.72338867 0.00428772 C5.56562775 0.00984042 8.40778513 0.02238388 11.25 0.03515625 C13.18880094 0.04017737 15.12760312 0.0447392 17.06640625 0.04882812 C21.79430183 0.05979431 26.52213711 0.07702581 31.25 0.09765625 C32.29827817 4.7496595 32.07823892 6.63883562 29.55859375 10.640625 C28.25 12.09765625 28.25 12.09765625 25.25 13.16015625 C22.25 13.09765625 22.25 13.09765625 20.36035156 12.11962891 C17.93079873 10.94307775 16.17211026 10.78696818 13.484375 10.68359375 C12.15019531 10.62558594 12.15019531 10.62558594 10.7890625 10.56640625 C9.86867187 10.53546875 8.94828125 10.50453125 8 10.47265625 C6.59621094 10.41464844 6.59621094 10.41464844 5.1640625 10.35546875 C2.85956946 10.26140781 0.55507987 10.17576226 -1.75 10.09765625 C-1.70875 11.04769531 -1.6675 11.99773438 -1.625 12.9765625 C-1.625 17.80320053 -2.69514274 22.3464948 -3.75 27.03515625 C-4.41 30.02578125 -5.07 33.01640625 -5.75 36.09765625 C6.625 35.60265625 6.625 35.60265625 19.25 35.09765625 C18.07978723 42.11893285 18.07978723 42.11893285 14.25 45.09765625 C9.57190304 47.60092635 5.0970462 47.32853486 -0.0625 47.22265625 C-0.89845703 47.21363281 -1.73441406 47.20460938 -2.59570312 47.1953125 C-4.64725969 47.17186614 -6.69866777 47.13599891 -8.75 47.09765625 C-11.57913371 58.50223207 -11.57913371 58.50223207 -11.75 70.09765625 C-9.53317064 73.10930004 -8.32837221 73.99994368 -4.60546875 74.62890625 C5.01473736 74.54694496 13.09489912 73.006511 22.25 70.09765625 C22.02550892 74.51264747 21.84542895 77.17371477 19.4375 80.91015625 C10.67534682 86.92339863 -0.51061826 86.56659553 -10.75 86.47265625 C-12.04550781 86.48425781 -13.34101563 86.49585938 -14.67578125 86.5078125 C-15.91714844 86.50394531 -17.15851563 86.50007812 -18.4375 86.49609375 C-19.55511719 86.49270996 -20.67273438 86.48932617 -21.82421875 86.48583984 C-25.07702208 86.05426797 -26.44338317 85.39684545 -28.75 83.09765625 C-32.14121476 72.92401197 -28.62256873 62.11870229 -25.9375 52.16015625 C-25.57609396 50.78356469 -25.21606192 49.40661165 -24.85742188 48.02929688 C-24.32792407 45.99695149 -23.79806746 43.96472599 -23.26457214 41.9334259 C-19.82105468 29.26077046 -19.82105468 29.26077046 -18.0625 16.28515625 C-17.99675781 15.28871094 -17.93101562 14.29226563 -17.86328125 13.265625 C-17.82589844 12.55019531 -17.78851563 11.83476563 -17.75 11.09765625 C-19.07 11.09765625 -20.39 11.09765625 -21.75 11.09765625 C-22.12325636 7.83166312 -21.84290174 6.26797611 -20.25 3.34765625 C-15.16947633 -1.22481505 -6.55571993 -0.03954947 0 0 Z "
     fill="#2a7465"
     transform="translate(186.75,654.90234375)"
     id="path11" />
  <path
     d="M0 0 C1.9375 1.25 1.9375 1.25 3 3 C3 7.55675083 2.45834052 9.47458525 -0.5625 12.9375 C-1.7690625 13.9584375 -1.7690625 13.9584375 -3 15 C-5.74876408 13.83706135 -7.86660742 12.35270547 -10.125 10.4375 C-14.24992505 6.94028094 -16.4966048 6.72283702 -21.7421875 6.7734375 C-25.82623453 7.18325537 -28.18799202 9.18799202 -31 12 C-31.87918537 16.18585603 -31.9269343 20.2571024 -29.890625 24.0859375 C-25.85285168 28.98323683 -20.71142728 32.58857617 -15.64672852 36.34399414 C-10.51660174 40.20677487 -7.06016779 43.81949664 -5 50 C-4.20814989 58.80084839 -4.2384621 65.99418631 -10 73 C-16.84901678 80.68767189 -25.08295256 85.70599654 -35.48828125 86.40625 C-37.07505906 86.45566916 -38.66250633 86.48696505 -40.25 86.5 C-40.99435303 86.50644531 -41.73870605 86.51289062 -42.50561523 86.51953125 C-49.03904511 86.3685532 -54.28638977 84.61661886 -59.9375 81.25 C-62.78105193 78.14794335 -63.07205896 76.17941939 -63 72 C-60.79249324 67.58498648 -58.4613533 65.11327262 -54 63 C-53.34 63 -52.68 63 -52 63 C-51.608125 64.2375 -51.21625 65.475 -50.8125 66.75 C-49.06479229 71.45216599 -46.48151424 73.75924288 -42 76 C-35.77203604 76.52917341 -30.29293806 76.70505664 -25 73 C-21.46614328 69.10763608 -21.30020235 65.9191318 -21.4765625 60.8046875 C-23.03363543 52.46156539 -31.76484325 47.71582894 -38.23046875 43.17578125 C-43.28149643 39.20762551 -46.48439564 34.90300512 -47.3359375 28.45703125 C-47.45279107 20.54604429 -46.31345281 13.99295581 -41.15234375 7.7734375 C-30.53394854 -2.51734842 -13.51234087 -7.90382125 0 0 Z "
     fill="#2a7465"
     transform="translate(334,656)"
     id="path12" />
  <path
     d="M0 0 C2.9506742 2.59940346 3.79687356 4.06561838 4.625 7.875 C3.73046323 12.34768384 1.44990864 15.0752531 -2 18 C-4.875 18.9375 -4.875 18.9375 -7 19 C-7.38091797 18.18595703 -7.38091797 18.18595703 -7.76953125 17.35546875 C-8.11371094 16.64003906 -8.45789063 15.92460938 -8.8125 15.1875 C-9.14894531 14.47980469 -9.48539063 13.77210938 -9.83203125 13.04296875 C-11.77289334 9.64808289 -13.26442064 8.24519312 -17 7 C-22.78398125 6.41179852 -26.32487837 6.97577095 -31.12109375 10.3359375 C-41.22646844 19.28581197 -45.30949678 34.16327684 -46.13720703 47.15332031 C-46.25605637 49.51936704 -46.32530346 51.88153539 -46.375 54.25 C-46.41427612 55.36689209 -46.41427612 55.36689209 -46.4543457 56.50634766 C-46.47382829 62.99910166 -44.65910094 68.22480525 -40.12109375 72.9609375 C-35.33648315 75.30477989 -30.14098977 74.79649137 -25 74 C-18.96064484 71.56739185 -13.58979494 68.63255701 -9 64 C-8.34 64 -7.68 64 -7 64 C-5.6635514 70.19626168 -5.6635514 70.19626168 -7.125 73.6875 C-10.71656528 78.11709718 -14.7547552 80.56665485 -20 82.6875 C-21.010625 83.10386719 -22.02125 83.52023437 -23.0625 83.94921875 C-31.4330501 86.94347138 -44.31315951 88.24994295 -52.6875 84.4375 C-58.84056455 80.47801676 -62.71734013 75.20788617 -64.53125 68.125 C-67.12719001 50.81873324 -64.21193214 34.10080115 -54.30078125 19.49609375 C-52.60969313 17.25017672 -50.8527715 15.11395514 -49 13 C-48.18402344 12.06027344 -48.18402344 12.06027344 -47.3515625 11.1015625 C-35.40309006 -1.74444777 -16.50513173 -7.91992885 0 0 Z "
     fill="#2a7465"
     transform="translate(531,656)"
     id="path13" />
  <path
     d="M0 0 C-0.3846179 5.67311399 -0.82305585 8.82305585 -5 13 C-7.34852528 14.17426264 -8.73774065 14.11508173 -11.3515625 14.09765625 C-12.62773438 14.09282227 -12.62773438 14.09282227 -13.9296875 14.08789062 C-14.81914063 14.07951172 -15.70859375 14.07113281 -16.625 14.0625 C-17.97078125 14.05573242 -17.97078125 14.05573242 -19.34375 14.04882812 C-21.56256648 14.03702591 -23.78125018 14.02056155 -26 14 C-26.11102051 14.63526611 -26.22204102 15.27053223 -26.33642578 15.92504883 C-27.69274356 23.54766423 -29.24817814 31.11841018 -30.875 38.6875 C-31.26981567 40.53045654 -31.26981567 40.53045654 -31.67260742 42.41064453 C-33.3738067 50.28381763 -35.19142709 58.10830058 -37.23828125 65.8984375 C-38.52458666 71.13600927 -39.12244537 75.97991714 -39.0625 81.375 C-39.05347656 82.43460938 -39.04445313 83.49421875 -39.03515625 84.5859375 C-39.02355469 85.38257813 -39.01195312 86.17921875 -39 87 C-43.8241603 89.96871403 -48.4157782 91.08493452 -54 90 C-55.92569048 88.47086128 -56.88320876 87.56966436 -57.38305664 85.1315918 C-57.27671375 78.76348606 -56.02965986 72.96303535 -54.4375 66.8125 C-53.8881205 64.61097679 -53.34000124 62.40913881 -52.79296875 60.20703125 C-52.50212402 59.0463916 -52.2112793 57.88575195 -51.91162109 56.68994141 C-50.45561187 50.79649648 -49.08053644 44.88458563 -47.70779419 38.97128296 C-47.26024121 37.04409914 -46.81068596 35.11738066 -46.36108398 33.19067383 C-44.87217157 26.80120591 -43.40858125 20.40766372 -42 14 C-43.89646998 14.11493757 -45.79218332 14.24239642 -47.6875 14.375 C-49.27111328 14.47941406 -49.27111328 14.47941406 -50.88671875 14.5859375 C-53.91903011 14.98923111 -56.19834212 15.82588102 -59 17 C-59.99 17 -60.98 17 -62 17 C-62.16346226 15.44105441 -62.27907115 13.8770539 -62.375 12.3125 C-62.44460938 11.44238281 -62.51421875 10.57226562 -62.5859375 9.67578125 C-61.884652 6.47324412 -60.56670493 5.07698252 -58.02200317 3.06352234 C-53.84177038 0.86482601 -49.16480919 1.29722197 -44.546875 1.328125 C-43.45030579 1.31537537 -42.35373657 1.30262573 -41.22393799 1.28948975 C-37.73236088 1.25323639 -34.24174868 1.25048096 -30.75 1.25 C-27.24432857 1.22840153 -23.73880343 1.19997977 -20.23321533 1.16766357 C-18.05418765 1.14987084 -15.8750832 1.13961491 -13.69598389 1.13751221 C-12.7144635 1.13370544 -11.73294312 1.12989868 -10.72167969 1.12597656 C-9.42312042 1.12528168 -9.42312042 1.12528168 -8.09832764 1.12457275 C-4.97288824 0.9390228 -3.40849896 0 0 0 Z "
     fill="#2a7465"
     transform="translate(713,652)"
     id="path14" />
  <path
     d="M0 0 C2.9375 1.5625 2.9375 1.5625 5 3 C4.70867187 3.47824219 4.41734375 3.95648437 4.1171875 4.44921875 C-0.55432953 12.86676359 -2.80762281 21.99847537 -5.26367188 31.24072266 C-5.9647091 33.86775272 -6.6914684 36.48648296 -7.421875 39.10546875 C-10.56717668 50.68172151 -12.14773873 62.04290164 -13 74 C-9.85424793 74.05896868 -6.7086414 74.09391603 -3.5625 74.125 C-2.68400391 74.14175781 -1.80550781 74.15851563 -0.90039062 74.17578125 C5.01356525 74.21942668 10.29280601 73.52369394 16 72 C17.33305278 71.66554645 18.66630511 71.33188377 20 71 C20.32764303 75.09553782 20.23069669 77.53860663 18.375 81.25 C15.44180053 84.64633623 12.60434395 86.62730213 8.05728149 87.27801514 C5.84110943 87.3949849 3.6449584 87.41596317 1.42578125 87.3984375 C0.21730782 87.40274277 0.21730782 87.40274277 -1.01557922 87.40713501 C-2.70904244 87.40916723 -4.40252958 87.40369655 -6.09594727 87.39111328 C-8.69014576 87.37498355 -11.28280133 87.39102208 -13.87695312 87.41015625 C-15.5260451 87.4081749 -17.17513612 87.40433347 -18.82421875 87.3984375 C-19.5992424 87.40451019 -20.37426605 87.41058289 -21.17277527 87.4168396 C-26.51125426 87.34683825 -26.51125426 87.34683825 -28.98608398 85.59057617 C-35.02315899 76.11994201 -26.09549316 50.96885096 -24 41 C-23.85981445 40.30970703 -23.71962891 39.61941406 -23.57519531 38.90820312 C-21.76820859 30.02883792 -19.64228636 21.29549657 -17 12.625 C-16.7630542 11.82223633 -16.5261084 11.01947266 -16.28198242 10.19238281 C-14.91833333 5.87423782 -13.72681228 2.83878279 -10 0 C-6.20961574 -1.26346142 -3.89502364 -0.80586696 0 0 Z "
     fill="#2a7465"
     transform="translate(132,654)"
     id="path15" />
  <path
     d="m 1,2 c -36.16832,54.388119 -33.322934,116.35412 -26,177 l -16.195529,-0.21788 C -49.655767,164.71198 -48.094375,44.580731 1.2345806,1.5251823 Z"
     fill="#2a7465"
     transform="translate(248,259)"
     id="path16"
     sodipodi:nodetypes="ccccc" />
  <path
     d="M0 0 C1.93765227 1.48957018 3.62733889 3.06268515 5.32421875 4.8203125 C6.91063088 6.20081832 6.91063088 6.20081832 8.83984375 5.87109375 C12.69385652 4.31694393 16.28272621 2.25938793 19.9296875 0.27734375 C23.2123009 -1.08832366 25.48316463 -1.24670338 29 -1 C29 -0.01 29 0.98 29 2 C25.61103048 5.32454044 21.76601331 8.1159012 18 11 C17.10539062 11.70769531 16.21078125 12.41539062 15.2890625 13.14453125 C8.30563322 18.41970629 8.30563322 18.41970629 3.875 18.4375 C2.92625 18.293125 1.9775 18.14875 1 18 C0.46375 16.824375 -0.0725 15.64875 -0.625 14.4375 C-2.52940274 10.57389156 -4.85620031 7.63994967 -7.828125 4.54296875 C-9 3 -9 3 -9 0 C-5.72766691 -1.63616654 -3.49970684 -0.86058365 0 0 Z "
     fill="#2a7465"
     transform="translate(312,631)"
     id="path19" />
  <path
     d="M0 0 C0.66 0.33 1.32 0.66 2 1 C1.64950425 4.24208567 1.43778819 5.61527704 -1.0625 7.8125 C-1.701875 8.204375 -2.34125 8.59625 -3 9 C-2.69181644 7.68647977 -2.37832335 6.37420428 -2.0625 5.0625 C-1.88847656 4.33160156 -1.71445312 3.60070312 -1.53515625 2.84765625 C-1 1 -1 1 0 0 Z "
     fill="#2a7465"
     transform="translate(327,379)"
     id="path27" />
  <path
     style="opacity:1;fill:none;fill-opacity:1;fill-rule:evenodd;stroke:#2a7465;stroke-width:36;stroke-linecap:butt;stroke-linejoin:miter;stroke-miterlimit:4.4;stroke-dasharray:none;stroke-dashoffset:0;stroke-opacity:1"
     id="rect3"
     width="748.25598"
     height="748.25629"
     x="52.907677"
     y="50.561302"
     inkscape:path-effect="#path-effect1"
     sodipodi:type="rect"
     d="m 102.90768,50.561302 h 648.25598 c 27.7,0 50,22.3 50,49.999998 v 648.25629 c 0,27.7 -22.3,50 -50,50 H 102.90768 c -27.700003,0 -50.000003,-22.3 -50.000003,-50 V 100.5613 c 0,-27.699998 22.3,-49.999998 50.000003,-49.999998 z"
     ry="50"
     rx="50" />
  <path
     d="m 742.06527,652.75542 c 2.19702,1.42676 2.19702,1.42676 4,4 0.64511,3.19237 0.67421,6.35985 0.72266,9.60938 0.0304,0.95136 0.0609,1.90273 0.0922,2.88293 0.0642,2.03362 0.12045,4.06751 0.16941,6.10156 0.1301,5.2516 0.3289,10.50049 0.52741,15.74988 0.0378,1.02362 0.0756,2.04723 0.11456,3.10187 0.29792,7.64373 0.80096,15.2096 1.74872,22.80438 0.10192,0.8814 0.20383,1.76279 0.30884,2.6709 0.74154,5.39282 2.32151,10.05203 4.49829,15.03906 0.81787,2.04004 0.81787,2.04004 0.81787,4.04004 -5.31633,2.65817 -9.03778,3.68419 -15,3 -4.33831,-3.08249 -5.5711,-6.9413 -6.625,-12 -0.0226,-5.34703 -0.67826,-11.02482 -0.66135,-14.37713 -6.45967,0.95445 -19.6301,-1.16309 -25.99507,0.67664 -7.13479,3.24643 5.51024,-11.64815 5.51024,-11.64815 l 20.4303,0.77652 c -1.71521,-7.99831 1.60569,-32.06435 0.49078,-35.26601 -11.64156,14.48784 -21.5186,35.56059 -30.1499,52.83819 -0.47051,0.81469 -0.94102,1.62937 -1.42578,2.46875 -1.61818,3.70685 -2.77356,6.99111 -3.19922,11.03125 l -0.375,3.5 c -2.86634,1.43317 -5.37236,1.132 -8.5625,1.125 -1.76537,0.004 -1.76537,0.004 -3.56641,0.008 -2.87109,-0.1328 -2.87109,-0.1328 -3.87109,-1.1328 -1.06655,-6.38892 2.39115,-11.10177 5.4375,-16.4375 0.7454,-1.34481 0.7454,-1.34481 1.50586,-2.7168 3.75084,-6.71377 7.70683,-13.30055 11.67651,-19.88598 2.42317,-4.02329 4.81622,-8.064 7.20435,-12.10816 0.80921,-1.3685 1.61846,-2.73699 2.42773,-4.10547 1.22526,-2.07237 2.44974,-4.14517 3.67212,-6.21924 15.86291,-26.90574 15.86291,-26.90574 28.07593,-25.52685 z"
     fill="#2a7465"
     id="path9-0"
     sodipodi:nodetypes="ccccccccccccccccccccccccccccccccc" />
  <path
     d="m 413.58222,653.88716 c 2.19702,1.42676 2.19702,1.42676 4,4 0.64511,3.19237 0.67421,6.35985 0.72266,9.60938 0.0304,0.95136 0.0609,1.90273 0.0922,2.88293 0.0642,2.03362 0.12045,4.06751 0.16941,6.10156 0.1301,5.2516 0.3289,10.50049 0.52741,15.74988 0.0378,1.02362 0.0756,2.04723 0.11456,3.10187 0.29792,7.64373 0.80096,15.2096 1.74872,22.80438 0.10192,0.8814 0.20383,1.76279 0.30884,2.6709 0.74154,5.39282 2.32151,10.05203 4.49829,15.03906 0.81787,2.04004 0.81787,2.04004 0.81787,4.04004 -5.31633,2.65817 -9.03778,3.68419 -15,3 -4.33831,-3.08249 -5.5711,-6.9413 -6.625,-12 -0.0226,-5.34703 -0.67826,-11.02482 -0.66135,-14.37713 -6.45967,0.95445 -19.6301,-1.16309 -25.99507,0.67664 -7.13479,3.24643 5.51024,-11.64815 5.51024,-11.64815 l 20.4303,0.77652 c -1.71521,-7.99831 1.60569,-32.06435 0.49078,-35.26601 -11.64156,14.48784 -21.5186,35.56059 -30.1499,52.83819 -0.47051,0.81469 -0.94102,1.62937 -1.42578,2.46875 -1.61818,3.70685 -2.77356,6.99111 -3.19922,11.03125 l -0.375,3.5 c -2.86634,1.43317 -5.37236,1.132 -8.5625,1.125 -1.76537,0.004 -1.76537,0.004 -3.56641,0.008 -2.87109,-0.1328 -2.87109,-0.1328 -3.87109,-1.1328 -1.06655,-6.38892 2.39115,-11.10177 5.4375,-16.4375 0.7454,-1.34481 0.7454,-1.34481 1.50586,-2.7168 3.75084,-6.71377 7.70683,-13.30055 11.67651,-19.88598 2.42317,-4.02329 4.81622,-8.064 7.20435,-12.10816 0.80921,-1.3685 1.61846,-2.73699 2.42773,-4.10547 1.22526,-2.07237 2.44974,-4.14517 3.67212,-6.21924 15.86291,-26.90574 15.86291,-26.90574 28.07593,-25.52685 z"
     fill="#2a7465"
     id="path9-0-0"
     sodipodi:nodetypes="ccccccccccccccccccccccccccccccccc" />
</svg>
